# xmcd
#
# Track frame offsets: 
#        150
#        11314
#        25583
#        42157
#        60122
#        73120
#        93919
#        118393
#        138313
#        163705
#        176889
#        191856
#        208914
#        226712
#        244651
#        259275
#
# Disc length: 3724 seconds
#
# Revision: 0
# Processed by: cddbd v1.5.2PL0 Copyright (c) Steve Scherf et al.
# Submitted via: ExactAudioCopy v1.3
#
DISCID=da0e8a10
DTITLE=Big Creek Slim and Rodrigo Mantovani - First Born
DYEAR=2019
DGENRE=Blues
TTITLE0=Teddy's on a Sunday Night
TTITLE1=Anytime Is the Right Time
TTITLE2=Poor Boy a Long Ways from Home
TTITLE3=I've Got Blood in My Eyes for You
TTITLE4=Honey Time
TTITLE5=Drop Down Mama
TTITLE6=First Born
TTITLE7=Baby Please Don't Go
TTITLE8=How Come You Hold Your Head so High
TTITLE9=Some of These Days
TTITLE10=Million Years Blues (feat. Luciano Leaes and Igor Prado)
TTITLE11=Motherless Children
TTITLE12=Sugar Mama (feat. Sidmar Vieira)
TTITLE13=Rollin'and Tumblin'
TTITLE14=VW-Van Blues (feat. Yuri Prado)
TTITLE15=I Love My Baby (feat. Yuri Prado)
EXTD=
EXTT0=
EXTT1=
EXTT2=
EXTT3=
EXTT4=
EXTT5=
EXTT6=
EXTT7=
EXTT8=
EXTT9=
EXTT10=
EXTT11=
EXTT12=
EXTT13=
EXTT14=
EXTT15=
PLAYORDER=
